# xmcd CD database file
#
# Track frame offsets:
#	150
#	13383
#	29609
#	40664
#	63631
#	86176
#	104968
#	121611
#	139379
#	156705
#
# Disc length: 2140 seconds
#
# Revision: 0
# Processed by: cddbd v1.5.2PL0 Copyright (c) Steve Scherf et al.
# Submitted via: CDex 1.70beta2
#
DISCID=99085a0a
DTITLE=Caddle - Raise 'em High
DYEAR=2006
DGENRE=Country
TTITLE0=Mississippi Doublewide
TTITLE1=Work
TTITLE2=Raise 'Em High
TTITLE3=Give Me A Dollar
TTITLE4=Had To Die
TTITLE5=Meet Me At The Bar
TTITLE6=Better Bad
TTITLE7=Stay With Me
TTITLE8=Afternoon Lies
TTITLE9=Come Inside
EXTD=YEAR: 2006
EXTT0=
EXTT1=
EXTT2=
EXTT3=
EXTT4=
EXTT5=
EXTT6=
EXTT7=
EXTT8=
EXTT9=
PLAYORDER=
